<?xml version="1.0" standalone="no"?><!DOCTYPE svg PUBLIC "-//W3C//DTD SVG 1.1//EN" "http://www.w3.org/Graphics/SVG/1.1/DTD/svg11.dtd"><svg t="1694051092234" class="icon" viewBox="0 0 1024 1024" version="1.1" xmlns="http://www.w3.org/2000/svg" p-id="10457" xmlns:xlink="http://www.w3.org/1999/xlink" width="200" height="200"><path d="M288.768 226.304l91.136 0c24.576 0 44.544-19.968 44.544-44.544S404.48 137.216 379.904 137.216L187.0848 137.216c-11.5712 0-22.8352 3.7888-31.744 10.752-12.1856 9.4208-19.1488 23.7568-19.1488 39.1168L136.192 379.904c0 24.576 19.968 44.544 44.544 44.544S225.28 404.48 225.28 379.904l0-92.2624 131.3792 131.3792c8.6016 8.6016 19.8656 12.9024 31.232 12.9024s22.6304-4.3008 31.232-12.9024c17.2032-17.2032 17.2032-45.1584 0-62.464L288.768 226.304z" fill="#70DDFF" p-id="10458"></path><path d="M419.1232 604.8768c-17.2032-17.2032-45.1584-17.2032-62.464 0L225.28 736.256l0-92.16c0-24.576-19.968-44.544-44.544-44.544S136.192 619.52 136.192 644.096l0 192.8192c0 28.0576 22.8352 50.8928 50.8928 50.8928L379.904 887.808c24.576 0 44.544-19.968 44.544-44.544S404.48 798.72 379.904 798.72l-92.16 0 131.3792-131.3792C436.3264 650.1376 436.3264 622.1824 419.1232 604.8768z" fill="#70DDFF" p-id="10459"></path><path d="M836.9152 137.216 644.096 137.216c-24.576 0-44.544 19.968-44.544 44.544S619.52 226.304 644.096 226.304l91.136 0L604.9792 356.6592c-17.2032 17.2032-17.2032 45.1584 0 62.464 8.6016 8.6016 19.8656 12.9024 31.232 12.9024s22.6304-4.3008 31.232-12.9024L797.696 288.768l0 91.136c0 24.576 19.968 44.544 44.544 44.544S886.784 404.48 886.784 379.904L886.784 187.0848C886.784 159.1296 864.8704 137.216 836.9152 137.216z" fill="#70DDFF" p-id="10460"></path><path d="M842.24 599.552c-24.576 0-44.544 19.968-44.544 44.544l0 91.136L667.3408 604.8768c-17.2032-17.2032-45.1584-17.2032-62.464 0-17.2032 17.2032-17.2032 45.1584 0 62.464L736.3584 798.72 644.096 798.72c-24.576 0-44.544 19.968-44.544 44.544S619.52 887.808 644.096 887.808l192.8192 0c15.4624 0 29.696-6.9632 39.1168-19.1488 6.9632-8.9088 10.752-20.1728 10.752-31.744L886.784 644.096C886.784 619.52 866.816 599.552 842.24 599.552z" fill="#70DDFF" p-id="10461"></path></svg>